<svg width="56" height="56" viewBox="0 0 56 56" fill="none" xmlns="http://www.w3.org/2000/svg">
<g filter="url(#filter0_d_61385_212)">
<rect x="4" width="48" height="48" fill="#323238"/>
<g clip-path="url(#clip0_61385_212)">
<path d="M40.5252 18.8108C40.5698 17.7824 40.219 16.7777 39.5499 16.0172C38.8809 15.2566 37.9481 14.8023 36.9564 14.754C34.2851 14.6242 31.5608 14.5712 28.7784 14.5712H27.9108C25.1337 14.5712 22.4042 14.6214 19.7328 14.754C18.7408 14.8056 17.809 15.2625 17.141 16.0246C16.473 16.7867 16.1233 17.7921 16.1684 18.8209C16.0485 20.6043 15.9947 22.3804 16 24.1611C16.0053 25.9418 16.0485 27.7207 16.164 29.5059C16.117 30.5362 16.4655 31.5439 17.1334 32.3083C17.8013 33.0727 18.734 33.5317 19.7275 33.5847C22.5338 33.72 25.4132 33.7794 28.3402 33.7748C31.2719 33.7846 34.1428 33.7212 36.9529 33.5847C37.9464 33.5326 38.8796 33.0746 39.5483 32.3109C40.2169 31.5472 40.5666 30.5399 40.5208 29.5096C40.6363 27.7243 40.6892 25.9445 40.6848 24.1602C40.6942 22.3771 40.641 20.5939 40.5252 18.8108ZM25.9783 29.0653V19.2414L32.9705 24.1511L25.9783 29.0653Z" fill="url(#paint0_linear_61385_212)"/>
</g>
</g>
<defs>
<filter id="filter0_d_61385_212" x="0" y="0" width="56" height="56" filterUnits="userSpaceOnUse" color-interpolation-filters="sRGB">
<feFlood flood-opacity="0" result="BackgroundImageFix"/>
<feColorMatrix in="SourceAlpha" type="matrix" values="0 0 0 0 0 0 0 0 0 0 0 0 0 0 0 0 0 0 127 0" result="hardAlpha"/>
<feOffset dy="4"/>
<feGaussianBlur stdDeviation="2"/>
<feComposite in2="hardAlpha" operator="out"/>
<feColorMatrix type="matrix" values="0 0 0 0 0.0958333 0 0 0 0 0.0950347 0 0 0 0 0.0950347 0 0 0 0.25 0"/>
<feBlend mode="normal" in2="BackgroundImageFix" result="effect1_dropShadow_61385_212"/>
<feBlend mode="normal" in="SourceGraphic" in2="effect1_dropShadow_61385_212" result="shape"/>
</filter>
<linearGradient id="paint0_linear_61385_212" x1="15.9996" y1="15.0267" x2="43.8402" y2="24.146" gradientUnits="userSpaceOnUse">
<stop stop-color="#FF0000"/>
<stop offset="1" stop-color="#F10000"/>
</linearGradient>
<clipPath id="clip0_61385_212">
<rect width="24.6857" height="19.2" fill="white" transform="translate(16 14.5712)"/>
</clipPath>
</defs>
</svg>
